<?xml version="1.0" standalone="no"?>
<!DOCTYPE svg PUBLIC "-//W3C//DTD SVG 20010904//EN"
 "http://www.w3.org/TR/2001/REC-SVG-20010904/DTD/svg10.dtd">
<svg version="1.0" xmlns="http://www.w3.org/2000/svg"
 width="530.000000pt" height="236.000000pt" viewBox="0 0 530.000000 236.000000"
 preserveAspectRatio="xMidYMid meet">

<g transform="translate(0.000000,236.000000) scale(0.100000,-0.100000)"
fill="#000000" stroke="none">
<path d="M570 1340 l0 -70 -35 0 c-33 0 -35 -2 -35 -35 0 -33 2 -35 35 -35
l35 0 0 -70 0 -70 175 0 175 0 0 70 0 70 35 0 c33 0 35 2 35 35 l0 35 -140 0
-140 0 0 -35 0 -35 70 0 70 0 0 -35 0 -35 -105 0 -105 0 0 105 0 105 105 0
105 0 0 35 0 35 -140 0 -140 0 0 -70z"/>
<path d="M920 1375 c0 -33 2 -35 35 -35 33 0 35 2 35 35 0 33 -2 35 -35 35
-33 0 -35 -2 -35 -35z"/>
<path d="M1260 1340 l0 -70 -35 0 c-33 0 -35 -2 -35 -35 0 -33 2 -35 35 -35
l35 0 0 -70 0 -70 35 0 35 0 0 140 0 140 105 0 105 0 0 -70 0 -70 -70 0 -70 0
0 -35 0 -35 70 0 70 0 0 -35 c0 -33 2 -35 35 -35 l35 0 0 70 0 70 35 0 c33 0
35 2 35 35 0 33 -2 35 -35 35 l-35 0 0 70 0 70 -175 0 -175 0 0 -70z"/>
<path d="M1960 1340 l0 -70 -35 0 c-33 0 -35 -2 -35 -35 0 -33 2 -35 35 -35
l35 0 0 -70 0 -70 35 0 35 0 0 140 0 140 105 0 105 0 0 -140 0 -140 35 0 35 0
0 70 0 70 35 0 c33 0 35 2 35 35 0 33 -2 35 -35 35 l-35 0 0 70 0 70 -175 0
-175 0 0 -70z"/>
<path d="M2650 1340 l0 -70 -35 0 c-33 0 -35 -2 -35 -35 0 -33 2 -35 35 -35
l35 0 0 -70 0 -70 175 0 175 0 0 70 0 70 35 0 c33 0 35 2 35 35 0 33 -2 35
-35 35 l-35 0 0 70 0 70 -35 0 -35 0 0 -140 0 -140 -105 0 -105 0 0 140 0 140
-35 0 -35 0 0 -70z"/>
<path d="M3350 1340 l0 -70 -35 0 c-33 0 -35 -2 -35 -35 0 -33 2 -35 35 -35
l35 0 0 -70 0 -70 35 0 35 0 0 140 0 140 105 0 105 0 0 -140 0 -140 35 0 35 0
0 70 0 70 35 0 c33 0 35 2 35 35 0 33 -2 35 -35 35 l-35 0 0 70 0 70 -175 0
-175 0 0 -70z"/>
<path d="M4040 1340 l0 -70 -35 0 c-33 0 -35 -2 -35 -35 0 -33 2 -35 35 -35
l35 0 0 -70 0 -70 175 0 175 0 0 70 0 70 35 0 c33 0 35 2 35 35 0 33 -2 35
-35 35 l-35 0 0 70 0 70 -175 0 -175 0 0 -70z m280 -105 l0 -105 -105 0 -105
0 0 105 0 105 105 0 105 0 0 -105z"/>
<path d="M4180 1235 c0 -33 2 -35 35 -35 33 0 35 2 35 35 0 33 -2 35 -35 35
-33 0 -35 -2 -35 -35z"/>
<path d="M2100 1235 c0 -33 2 -35 35 -35 33 0 35 2 35 35 0 33 -2 35 -35 35
-33 0 -35 -2 -35 -35z"/>
<path d="M2790 1235 c0 -33 2 -35 35 -35 33 0 35 2 35 35 0 33 -2 35 -35 35
-33 0 -35 -2 -35 -35z"/>
<path d="M3490 1235 c0 -33 2 -35 35 -35 33 0 35 2 35 35 0 33 -2 35 -35 35
-33 0 -35 -2 -35 -35z"/>
</g>
</svg>
