<?xml version="1.0" standalone="no"?>
<!DOCTYPE svg PUBLIC "-//W3C//DTD SVG 20010904//EN"
 "http://www.w3.org/TR/2001/REC-SVG-20010904/DTD/svg10.dtd">
<svg version="1.0" xmlns="http://www.w3.org/2000/svg"
 width="327.000000pt" height="147.000000pt" viewBox="0 0 327.000000 147.000000"
 preserveAspectRatio="xMidYMid meet">

<g transform="translate(0.000000,147.000000) scale(0.100000,-0.100000)"
fill="#000000" stroke="none">
<path d="M250 1180 c0 -20 7 -20 975 -20 968 0 975 0 975 20 0 20 -7 20 -975
20 -968 0 -975 0 -975 -20z"/>
<path d="M240 770 l0 -200 35 0 c28 0 42 8 71 40 20 22 40 40 45 40 5 0 25
-18 45 -40 33 -36 41 -40 86 -40 l49 0 -86 97 c-47 53 -85 100 -85 104 0 4 36
47 80 97 44 50 80 93 80 96 0 3 -20 6 -44 6 -42 0 -46 -3 -101 -70 -31 -38
-61 -70 -65 -70 -22 0 -40 40 -40 88 l0 52 -35 0 -35 0 0 -200z m95 -60 c0
-13 -6 -25 -12 -27 -9 -3 -13 6 -13 27 0 21 4 30 13 28 6 -3 12 -15 12 -28z"/>
<path d="M746 962 c-8 -13 -166 -382 -166 -388 0 -2 17 -4 38 -4 36 0 40 3 57
40 10 22 20 40 21 40 2 0 52 -18 111 -40 70 -27 121 -40 144 -38 l36 3 -83
195 -82 195 -35 3 c-19 2 -38 -1 -41 -6z m80 -196 c19 -43 33 -80 31 -83 -5
-4 -108 35 -119 46 -10 9 34 122 45 118 5 -1 24 -38 43 -81z"/>
<path d="M1030 770 l0 -200 34 0 c27 0 41 8 70 40 20 22 40 40 45 40 5 0 25
-18 44 -41 33 -38 38 -40 82 -37 l47 3 -86 98 -87 99 73 81 c114 130 108 117
55 117 -44 0 -48 -2 -103 -67 -31 -38 -61 -70 -66 -72 -19 -7 -37 35 -38 87
l0 52 -35 0 -35 0 0 -200z m87 -77 c-16 -16 -17 -15 -17 17 0 32 1 33 17 17
16 -16 16 -18 0 -34z"/>
<path d="M1380 930 c0 -33 3 -40 20 -40 13 0 20 -7 20 -20 0 -13 -7 -20 -20
-20 -17 0 -20 -7 -20 -40 0 -33 3 -40 20 -40 18 0 20 -7 20 -60 0 -53 -2 -60
-20 -60 -17 0 -20 -7 -20 -40 l0 -40 75 0 75 0 0 40 c0 33 -3 40 -20 40 -18 0
-20 7 -20 60 0 53 2 60 20 60 17 0 20 7 20 40 0 33 -3 40 -20 40 -13 0 -20 7
-20 20 0 13 7 20 20 20 17 0 20 7 20 40 l0 40 -75 0 -75 0 0 -40z"/>
<path d="M1600 770 l0 -200 135 0 135 0 0 40 c0 25 -5 40 -12 40 -7 0 -52 39
-100 87 l-88 88 0 72 0 73 -35 0 -35 0 0 -200z m120 -85 l34 -35 -42 0 c-41 0
-42 1 -42 35 0 19 4 35 8 35 4 0 23 -16 42 -35z"/>
<path d="M1920 930 c0 -33 3 -40 20 -40 13 0 20 -7 20 -20 0 -13 -7 -20 -20
-20 -17 0 -20 -7 -20 -40 0 -33 3 -40 20 -40 18 0 20 -7 20 -60 0 -53 -2 -60
-20 -60 -17 0 -20 -7 -20 -40 l0 -40 75 0 75 0 0 40 c0 33 -3 40 -20 40 -18 0
-20 7 -20 60 0 53 2 60 20 60 17 0 20 7 20 40 0 33 -3 40 -20 40 -13 0 -20 7
-20 20 0 13 7 20 20 20 17 0 20 7 20 40 l0 40 -75 0 -75 0 0 -40z"/>
<path d="M2140 770 l0 -200 35 0 34 0 3 121 3 120 38 -65 37 -65 -30 -49 c-16
-27 -30 -52 -30 -56 0 -3 18 -6 40 -6 26 0 42 6 49 18 10 16 12 16 25 0 9 -12
27 -18 55 -18 l43 0 -23 38 c-13 20 -28 45 -33 54 -8 14 -4 31 21 75 17 32 36
59 42 61 7 2 11 -35 11 -112 l0 -116 35 0 35 0 0 200 0 200 -37 0 c-38 0 -39
-1 -98 -104 -33 -58 -62 -103 -66 -100 -4 2 -32 49 -63 104 -55 96 -58 100
-92 100 l-34 0 0 -200z"/>
<path d="M2736 962 c-8 -13 -166 -382 -166 -388 0 -2 17 -4 38 -4 36 0 40 3
57 40 10 22 20 40 21 40 2 0 52 -18 111 -40 70 -27 121 -40 144 -38 l36 3 -83
195 -82 195 -35 3 c-19 2 -38 -1 -41 -6z m80 -196 c19 -43 33 -80 31 -83 -5
-4 -108 35 -119 46 -10 9 34 122 45 118 5 -1 24 -38 43 -81z"/>
<path d="M250 350 c0 -20 7 -20 975 -20 968 0 975 0 975 20 0 20 -7 20 -975
20 -968 0 -975 0 -975 -20z"/>
</g>
</svg>
