<?xml version="1.0" standalone="no"?>
<!DOCTYPE svg PUBLIC "-//W3C//DTD SVG 20010904//EN"
 "http://www.w3.org/TR/2001/REC-SVG-20010904/DTD/svg10.dtd">
<svg version="1.0" xmlns="http://www.w3.org/2000/svg"
 width="405.000000pt" height="124.000000pt" viewBox="0 0 405.000000 124.000000"
 preserveAspectRatio="xMidYMid meet">

<g transform="translate(0.000000,124.000000) scale(0.100000,-0.100000)"
fill="#000000" stroke="none">
<path d="M510 1125 l-104 -104 64 26 c83 33 206 36 294 5 l58 -20 -98 99 c-54
55 -101 99 -104 99 -3 0 -52 -47 -110 -105z"/>
<path d="M1383 1035 c-18 -8 -45 -26 -59 -40 -33 -33 -38 -27 126 -130 69 -43
127 -79 129 -81 9 -8 -27 -39 -67 -56 -59 -27 -112 -17 -163 29 -43 39 -61 38
-36 -1 34 -52 138 -80 204 -55 31 12 93 67 93 83 -1 6 -63 49 -139 96 -147 90
-150 94 -90 126 45 23 118 18 162 -11 20 -14 37 -30 37 -35 0 -6 5 -10 10 -10
18 0 11 26 -13 48 -51 48 -133 64 -194 37z"/>
<path d="M1715 938 c-9 -145 -4 -240 13 -246 9 -3 12 37 12 177 0 101 -4 181
-9 181 -5 0 -12 -51 -16 -112z"/>
<path d="M1860 870 c0 -113 4 -180 10 -180 6 0 10 62 10 165 l0 165 33 0 c40
0 103 -29 140 -64 41 -38 75 -120 83 -198 12 -125 24 -70 24 112 0 113 -4 180
-10 180 -6 0 -10 -36 -10 -87 l0 -86 -32 48 c-38 57 -101 100 -169 114 -85 19
-79 32 -79 -169z"/>
<path d="M2378 1041 c-80 -26 -135 -109 -124 -188 12 -87 68 -145 154 -159 78
-12 171 43 188 112 4 17 13 24 30 24 15 0 24 6 24 15 0 13 -13 15 -72 13 -75
-3 -97 -20 -33 -26 19 -2 35 -7 35 -13 0 -21 -74 -89 -108 -99 -69 -18 -155
24 -182 90 -7 18 -10 52 -8 82 5 43 11 57 41 84 19 18 51 37 71 42 37 11 101
1 119 -17 14 -14 37 -14 37 -1 0 29 -120 57 -172 41z"/>
<path d="M2877 1029 c-23 -37 -176 -306 -179 -316 -2 -4 1 -9 5 -11 5 -2 22
15 38 38 53 72 127 103 200 81 48 -14 102 -60 119 -101 13 -31 30 -40 30 -17
0 12 -173 322 -190 341 -5 4 -15 -2 -23 -15z m118 -197 c-1 -1 -23 3 -48 10
-35 9 -60 9 -99 1 -29 -6 -54 -10 -55 -9 -1 1 21 41 49 89 l51 89 52 -89 c28
-48 51 -89 50 -91z"/>
<path d="M3177 1044 c-4 -4 -7 -53 -7 -108 1 -145 33 -206 127 -237 75 -25
174 17 209 88 26 54 34 253 10 253 -14 0 -16 -15 -16 -102 0 -78 -4 -111 -18
-138 -18 -37 -74 -80 -103 -80 -18 0 -19 11 -19 165 0 103 -4 165 -10 165 -6
0 -10 -62 -10 -165 l0 -165 -25 0 c-16 0 -42 15 -68 39 l-42 40 -3 118 c-3
111 -9 142 -25 127z"/>
<path d="M3696 879 c-65 -114 -94 -175 -88 -181 7 -7 17 3 31 31 31 60 90 96
160 96 71 0 121 -29 157 -91 25 -42 51 -53 36 -15 -12 30 -187 331 -192 331
-3 0 -50 -77 -104 -171z m154 45 c28 -48 49 -89 47 -91 -2 -2 -16 1 -31 7 -15
5 -45 10 -66 10 -21 0 -51 -5 -66 -10 -15 -6 -29 -9 -31 -6 -4 3 88 175 94
176 1 0 25 -39 53 -86z"/>
<path d="M558 989 c-71 -10 -156 -51 -198 -94 l-31 -32 318 -198 c175 -109
333 -209 352 -223 l33 -25 97 97 96 96 1403 0 c928 0 1402 3 1402 10 0 7 -474
10 -1403 10 l-1402 0 -105 105 c-68 69 -108 101 -114 95 -21 -21 -55 -10 -82
25 -74 98 -228 154 -366 134z"/>
<path d="M120 735 l-115 -115 110 -110 c85 -85 111 -106 118 -95 17 31 54 17
91 -33 42 -57 93 -95 167 -124 73 -28 194 -28 266 0 60 23 144 81 166 116 l16
23 -332 208 c-183 115 -341 216 -352 226 -20 18 -23 17 -135 -96z"/>
<path d="M3114 513 c-40 -8 -59 -40 -59 -100 0 -68 24 -93 90 -93 35 0 48 5
64 26 24 31 28 109 7 136 -12 16 -59 40 -74 37 -4 -1 -17 -4 -28 -6z m70 -39
c21 -21 21 -92 -1 -116 -39 -43 -103 -8 -103 57 0 64 64 100 104 59z"/>
<path d="M3673 508 c-44 -22 -36 -71 18 -98 46 -24 55 -36 38 -56 -9 -12 -24
-15 -51 -11 -28 4 -38 2 -38 -9 0 -10 14 -14 50 -14 41 0 52 4 65 24 22 33 7
59 -45 86 -42 21 -45 26 -31 49 6 10 20 12 45 8 27 -4 36 -2 36 9 0 8 -6 14
-12 14 -7 0 -22 2 -33 5 -11 2 -30 -1 -42 -7z"/>
<path d="M1230 415 c0 -78 3 -95 15 -95 10 0 15 11 15 35 0 32 3 35 28 35 44
0 72 26 72 65 0 42 -20 55 -84 55 l-46 0 0 -95z m84 69 c26 -10 20 -53 -10
-64 -34 -13 -44 -6 -44 36 0 35 15 43 54 28z"/>
<path d="M1442 483 c-5 -16 -21 -58 -35 -95 -20 -53 -23 -68 -12 -68 8 0 20
12 27 28 11 22 20 27 48 27 28 0 37 -5 48 -27 7 -16 19 -28 27 -28 11 0 8 15
-12 68 -14 37 -30 79 -35 95 -6 16 -17 27 -28 27 -11 0 -22 -11 -28 -27z m42
-27 c3 -13 9 -31 12 -40 5 -13 -1 -16 -26 -16 -25 0 -31 3 -26 16 3 9 9 27 12
40 8 31 20 31 28 0z"/>
<path d="M1590 415 c0 -78 3 -95 15 -95 11 0 15 11 15 40 0 29 4 40 15 40 8 0
26 -18 40 -40 14 -22 32 -40 41 -40 16 0 14 6 -18 52 -18 27 -18 28 2 48 44
44 12 90 -63 90 l-47 0 0 -95z m91 59 c18 -21 0 -48 -35 -52 -24 -3 -26 0 -26
32 0 31 3 36 24 36 13 0 29 -7 37 -16z"/>
<path d="M1750 500 c0 -5 14 -10 30 -10 l30 0 0 -85 c0 -109 18 -112 22 -2 3
81 3 82 31 85 55 7 25 22 -43 22 -40 0 -70 -4 -70 -10z"/>
<path d="M1930 415 c0 -114 18 -129 22 -18 l3 77 46 -75 c31 -50 52 -75 67
-77 21 -3 22 0 22 92 0 79 -3 96 -15 96 -12 0 -15 -15 -15 -77 l0 -78 -48 77
c-67 110 -82 107 -82 -17z"/>
<path d="M2150 415 l0 -95 55 0 c65 0 74 17 13 22 -40 3 -43 5 -43 33 0 27 3
30 38 33 20 2 37 7 37 12 0 5 -17 10 -37 12 -33 3 -38 6 -38 28 0 22 5 25 43
28 61 5 52 22 -13 22 l-55 0 0 -95z"/>
<path d="M2300 415 c0 -78 3 -95 15 -95 11 0 15 11 15 40 0 29 4 40 15 40 8 0
27 -18 41 -40 15 -22 33 -40 41 -40 15 0 13 6 -20 53 -19 28 -19 28 2 43 11 8
21 25 21 38 0 36 -30 56 -83 56 l-47 0 0 -95z m91 59 c18 -21 0 -48 -35 -52
-24 -3 -26 0 -26 32 0 31 3 36 24 36 13 0 29 -7 37 -16z"/>
<path d="M2550 415 c0 -78 3 -95 15 -95 12 0 15 17 15 95 0 78 -3 95 -15 95
-12 0 -15 -17 -15 -95z"/>
<path d="M2640 415 c0 -114 18 -128 22 -18 l3 78 48 -78 c33 -53 54 -77 68
-77 17 0 19 8 19 95 0 80 -3 95 -16 95 -13 0 -15 -12 -12 -74 2 -41 0 -72 -4
-70 -3 2 -26 36 -49 74 -28 44 -50 70 -61 70 -16 0 -18 -11 -18 -95z"/>
<path d="M2855 415 l0 -95 53 0 c71 0 102 29 102 95 0 66 -31 95 -102 95 l-53
0 0 -95z m103 59 c16 -11 22 -25 22 -55 0 -48 -27 -79 -70 -79 l-30 0 0 75 0
75 28 0 c15 0 38 -7 50 -16z"/>
<path d="M3280 415 c0 -81 2 -95 16 -95 14 0 16 11 12 74 -2 41 0 72 3 70 4
-2 26 -35 49 -74 28 -47 48 -70 61 -70 17 0 19 9 19 95 0 114 -18 128 -22 18
l-3 -78 -48 78 c-33 53 -54 77 -68 77 -17 0 -19 -8 -19 -95z"/>
<path d="M3500 415 l0 -95 55 0 c30 0 55 5 55 10 0 6 -18 10 -40 10 -39 0 -40
1 -40 35 0 33 2 35 35 35 19 0 35 5 35 10 0 6 -16 10 -35 10 -32 0 -35 2 -35
30 0 28 2 30 40 30 22 0 40 5 40 10 0 6 -25 10 -55 10 l-55 0 0 -95z"/>
<path d="M3810 415 c0 -78 3 -95 15 -95 12 0 15 17 15 95 0 78 -3 95 -15 95
-12 0 -15 -17 -15 -95z"/>
<path d="M3929 483 c-32 -83 -59 -156 -59 -159 0 -2 6 -4 14 -4 8 0 19 14 25
30 9 26 15 30 46 30 32 0 38 -4 48 -30 6 -17 17 -30 24 -30 18 0 17 1 -19 101
-36 96 -59 114 -79 62z m35 -81 c-35 -5 -38 1 -23 45 l12 38 18 -40 18 -40
-25 -3z"/>
<path d="M518 108 l102 -103 97 97 97 97 -45 -16 c-69 -26 -229 -23 -299 5
l-55 22 103 -102z"/>
</g>
</svg>
